<mxfile host="app.diagrams.net" agent="Mozilla/5.0 (Windows NT 10.0; Win64; x64; rv:139.0) Gecko/20100101 Firefox/139.0" version="27.1.6">
  <diagram name="Page-1" id="jjq3g6bhC72-OqE1GstI">
    <mxGraphModel dx="1224" dy="1131" grid="1" gridSize="10" guides="1" tooltips="1" connect="1" arrows="1" fold="1" page="1" pageScale="1" pageWidth="827" pageHeight="1169" math="0" shadow="0">
      <root>
        <mxCell id="0" />
        <mxCell id="1" parent="0" />
        <mxCell id="qeC4XM_Ykf-qnmw7FB7r-4" style="edgeStyle=orthogonalEdgeStyle;rounded=0;orthogonalLoop=1;jettySize=auto;html=1;" edge="1" parent="1" source="qeC4XM_Ykf-qnmw7FB7r-1" target="qeC4XM_Ykf-qnmw7FB7r-3">
          <mxGeometry relative="1" as="geometry" />
        </mxCell>
        <object label="Main Start" odk_type="start" form_id="questionaire" name="s_" id="qeC4XM_Ykf-qnmw7FB7r-1">
          <mxCell style="ellipse;whiteSpace=wrap;html=1;aspect=fixed;fontColor=default;" vertex="1" parent="1">
            <mxGeometry x="210" y="130" width="70" height="70" as="geometry" />
          </mxCell>
        </object>
        <object label="end" name="end_" odk_type="end" hint="" id="qeC4XM_Ykf-qnmw7FB7r-2">
          <mxCell style="points=[[0.145,0.145,0],[0.5,0,0],[0.855,0.145,0],[1,0.5,0],[0.855,0.855,0],[0.5,1,0],[0.145,0.855,0],[0,0.5,0]];shape=mxgraph.bpmn.event;html=1;verticalLabelPosition=bottom;labelBackgroundColor=#ffffff;verticalAlign=top;align=center;perimeter=ellipsePerimeter;outlineConnect=0;aspect=fixed;outline=end;symbol=terminate2;strokeColor=default;" vertex="1" parent="1">
            <mxGeometry x="220" y="390" width="50" height="50" as="geometry" />
          </mxCell>
        </object>
        <mxCell id="qeC4XM_Ykf-qnmw7FB7r-5" style="edgeStyle=orthogonalEdgeStyle;rounded=0;orthogonalLoop=1;jettySize=auto;html=1;" edge="1" parent="1" source="qeC4XM_Ykf-qnmw7FB7r-3" target="qeC4XM_Ykf-qnmw7FB7r-2">
          <mxGeometry relative="1" as="geometry" />
        </mxCell>
        <object label="&lt;div&gt;Birthday&lt;/div&gt;" odk_type="date" name="birthdy" id="qeC4XM_Ykf-qnmw7FB7r-3">
          <mxCell style="shape=mxgraph.bpmn.task2;whiteSpace=wrap;html=1;fixedSize=1;points=[[0.25,0,0],[0.5,0,0],[0.75,0,0],[1,0.25,0],[1,0.5,0],[1,0.75,0],[0.75,1,0],[0.5,1,0],[0.25,1,0],[0,0.75,0],[0,0.5,0],[0,0.25,0]];rectStyle=rounded;size=10;container=1;expand=0;collapsible=0;taskMarker=user;fillColor=none;" vertex="1" parent="1">
            <mxGeometry x="195" y="250" width="100" height="60" as="geometry" />
          </mxCell>
        </object>
      </root>
    </mxGraphModel>
  </diagram>
</mxfile>
